<svg xmlns="http://www.w3.org/2000/svg" width="900" height="1260" viewBox="0 0 900 1260">
  <rect width="900" height="1260" fill="#f3f4f2"/>
  <rect x="34" y="28" width="832" height="1204" fill="#fff" stroke="#b7b7b7"/>
  <g fill="#1f2937" font-family="Arial, 'Microsoft YaHei', sans-serif">
    <text x="450" y="82" text-anchor="middle" font-size="30" font-weight="700">北京市密云区医院</text>
    <text x="450" y="122" text-anchor="middle" font-size="25" font-weight="700">临床血液检验报告单</text>
    <line x1="75" y1="145" x2="825" y2="145" stroke="#333"/>
    <g font-size="15">
      <text x="80" y="180">姓名：张桂兰</text><text x="280" y="180">性别：女</text>
      <text x="440" y="180">年龄：29岁</text><text x="620" y="180">样本：全血</text>
      <text x="80" y="210">科室：妇产科门诊</text><text x="280" y="210">床号：--</text>
      <text x="440" y="210">标本号：2606110321</text><text x="680" y="210">门诊号：20260401</text>
    </g>
    <line x1="75" y1="232" x2="825" y2="232" stroke="#333"/>
    <g font-size="14" font-weight="700">
      <text x="85" y="263">项目</text><text x="290" y="263">结果</text><text x="395" y="263">单位</text>
      <text x="540" y="263">参考范围</text><text x="720" y="263">提示</text>
    </g>
    <line x1="75" y1="278" x2="825" y2="278" stroke="#777"/>
    <g font-size="14">
      <text x="85" y="310">白细胞计数 WBC</text><text x="290" y="310">8.26</text><text x="395" y="310">10^9/L</text><text x="540" y="310">3.50-9.50</text>
      <text x="85" y="344">红细胞计数 RBC</text><text x="290" y="344">3.72</text><text x="395" y="344">10^12/L</text><text x="540" y="344">3.80-5.10</text><text x="720" y="344" fill="#b42318">↓</text>
      <text x="85" y="378">血红蛋白 HGB</text><text x="290" y="378">108</text><text x="395" y="378">g/L</text><text x="540" y="378">115-150</text><text x="720" y="378" fill="#b42318">↓</text>
      <text x="85" y="412">红细胞压积 HCT</text><text x="290" y="412">33.6</text><text x="395" y="412">%</text><text x="540" y="412">35.0-45.0</text><text x="720" y="412" fill="#b42318">↓</text>
      <text x="85" y="446">平均红细胞体积 MCV</text><text x="290" y="446">90.3</text><text x="395" y="446">fL</text><text x="540" y="446">82.0-100.0</text>
      <text x="85" y="480">平均血红蛋白量 MCH</text><text x="290" y="480">29.0</text><text x="395" y="480">pg</text><text x="540" y="480">27.0-34.0</text>
      <text x="85" y="514">平均血红蛋白浓度 MCHC</text><text x="290" y="514">321</text><text x="395" y="514">g/L</text><text x="540" y="514">316-354</text>
      <text x="85" y="548">血小板计数 PLT</text><text x="290" y="548">236</text><text x="395" y="548">10^9/L</text><text x="540" y="548">125-350</text>
      <text x="85" y="582">平均血小板体积 MPV</text><text x="290" y="582">10.7</text><text x="395" y="582">fL</text><text x="540" y="582">7.4-12.5</text>
      <text x="85" y="616">中性粒细胞百分比 NEUT%</text><text x="290" y="616">72.4</text><text x="395" y="616">%</text><text x="540" y="616">40.0-75.0</text>
      <text x="85" y="650">淋巴细胞百分比 LYMPH%</text><text x="290" y="650">20.2</text><text x="395" y="650">%</text><text x="540" y="650">20.0-50.0</text>
      <text x="85" y="684">单核细胞百分比 MONO%</text><text x="290" y="684">5.8</text><text x="395" y="684">%</text><text x="540" y="684">3.0-10.0</text>
      <text x="85" y="718">嗜酸性粒细胞百分比 EO%</text><text x="290" y="718">1.2</text><text x="395" y="718">%</text><text x="540" y="718">0.4-8.0</text>
      <text x="85" y="752">嗜碱性粒细胞百分比 BASO%</text><text x="290" y="752">0.4</text><text x="395" y="752">%</text><text x="540" y="752">0.0-1.0</text>
    </g>
    <line x1="75" y1="782" x2="825" y2="782" stroke="#777"/>
    <g font-size="14">
      <text x="85" y="820">检验仪器：全自动血液分析仪</text>
      <text x="85" y="850">标本状态：合格</text>
      <text x="85" y="880">临床提示：本报告仅对本次送检标本负责。</text>
      <text x="85" y="1030">检验者：李医生</text><text x="350" y="1030">审核者：王医生</text>
      <text x="85" y="1070">采样时间：2026-06-11 09:32</text>
      <text x="450" y="1070">报告时间：2026-06-11 10:16</text>
    </g>
    <rect x="655" y="920" width="120" height="70" rx="35" fill="none" stroke="#c44747" stroke-width="3" transform="rotate(-8 715 955)"/>
    <text x="715" y="962" text-anchor="middle" fill="#c44747" font-size="19" transform="rotate(-8 715 955)">检验专用章</text>
    <line x1="75" y1="1100" x2="825" y2="1100" stroke="#333"/>
    <text x="450" y="1140" text-anchor="middle" font-size="13" fill="#666">地址：北京市密云区阳光街383号　咨询电话：010-69000000</text>
  </g>
</svg>
